<svg xmlns="http://www.w3.org/2000/svg" version="1.1" xmlns:xlink="http://www.w3.org/1999/xlink" xmlns:svgjs="http://svgjs.dev/svgjs" width="3840" height="2160" preserveAspectRatio="none" viewBox="0 0 3840 2160"><g mask="url(&quot;#SvgjsMask1010&quot;)" fill="none"><path d="M1362.86 0C1498.21 30.42 1509.32 34.78 1620 121.35C1854.52 304.78 1837.87 329.42 2053.26 540C2107.87 593.39 2101.78 649.29 2160 649.29C2231.65 649.29 2298.47 623.67 2313 540C2354.85 299.03 2164.59 150.92 2272.75 0C2358.09 -119.08 2486.38 0 2700 0C2970 0 2970 0 3240 0C3450.73 0 3484.43 -61.28 3661.46 0C3754.43 32.18 3685.13 172.45 3780 186.92C4014.4 222.68 4170.31 2.59 4320 100.47C4440.31 179.13 4320 320.24 4320 540C4320 810 4320 810 4320 1080C4320 1350 4320 1350 4320 1620C4320 1890 4455 2025 4320 2160C4185 2295 4050 2160 3780 2160C3510 2160 3510 2160 3240 2160C2970 2160 2970 2160 2700 2160C2430 2160 2430 2160 2160 2160C2086.36 2160 2075.42 2193.43 2012.73 2160C1805.42 2049.43 1787.8 1872 1620 1872C1503.86 1872 1574.52 2090.85 1444.86 2160C1304.52 2234.85 1262.43 2160 1080 2160C810 2160 810 2160 540 2160C270 2160 135 2295 0 2160C-135 2025 0 1890 0 1620C0 1350 0 1350 0 1080C0 810 0 810 0 540C0 270 -135 135 0 0C135 -135 270 0 540 0C810 0 810 0 1080 0C1221.43 0 1228.21 -30.26 1362.86 0" stroke="rgba(51, 121, 194, 0.58)" stroke-width="2"></path><path d="M3240 1038.46C3220.93 1045.43 3248 1065.76 3232.8 1080C2978 1318.85 2992.44 1363.93 2700 1544.65C2555.52 1633.93 2358.95 1530.04 2358.95 1620C2358.95 1747.72 2502.48 1962.95 2700 1980C2943.01 2000.98 2957.92 1733.67 3240 1696.06C3497.92 1661.67 3548.3 1862.11 3780 1836C3885.8 1824.08 3847.8 1728.19 3915 1620C4082.59 1350.19 4287 1285.16 4249.57 1080C4219.5 915.16 4020.07 889.88 3780 880C3515.29 869.11 3494.53 945.43 3240 1038.46" stroke="rgba(51, 121, 194, 0.58)" stroke-width="2"></path><path d="M0 22.98C0.62 7.46 6.12 0.66 21.6 0C276.12 -10.83 280.8 0 540 0C794.12 0 813.87 -30.57 1048.24 0C1083.87 4.65 1046.23 54.3 1080 70.43C1332.11 190.82 1375.04 132.11 1620 273.03C1783.18 366.9 1760.08 404.56 1896.28 540C2030.08 673.05 2016.17 810 2160 810C2337.03 810 2478.37 724.98 2538 540C2608.92 319.98 2367.27 179.43 2421.1 0C2448.27 -90.57 2560.55 0 2700 0C2970 0 2970 0 3240 0C3368.41 0 3496.83 -70.62 3496.83 0C3496.83 131.88 3395.92 230.78 3240 405C3154.28 500.78 3044.2 429.48 3013.55 540C2950.6 766.98 3136.88 852.69 3052.8 1080C2980.11 1276.53 2906.35 1300.3 2700 1387.67C2459.95 1489.3 2430.2 1424.44 2160 1458C1890.2 1491.51 1872.48 1456.52 1620 1521.82C1559.28 1537.52 1565.41 1563.23 1533.6 1620C1386.63 1882.32 1436.64 1952.61 1262.43 2160C1209.84 2222.61 1171.22 2160 1080 2160C810 2160 810 2160 540 2160C270 2160 135 2295 0 2160C-135 2025 0 1890 0 1620C0 1548.95 -29.21 1540.47 0 1477.89C96.79 1270.47 252 1244.36 252 1080C252 981.34 51.29 1061.76 0 951.86C-74.71 791.76 0 745.93 0 540C0 281.49 -10.18 277.46 0 22.98" stroke="rgba(51, 121, 194, 0.58)" stroke-width="2"></path><path d="M3559.09 540C3559.09 494.01 3667.62 488.27 3780 446.54C4048.07 346.99 4139.26 226.16 4320 257.44C4409.26 272.89 4320 398.72 4320 540C4320 721.35 4421.2 885.82 4320 902.69C4151.2 930.82 4052.86 760.06 3780 630C3672.41 578.72 3559.09 585.74 3559.09 540" stroke="rgba(51, 121, 194, 0.58)" stroke-width="2"></path><path d="M2886.55 2160C2886.55 2083.54 3059.51 1886.2 3240 1886.2C3434.6 1886.2 3636.73 2084.91 3636.73 2160C3636.73 2221.81 3438.36 2160 3240 2160C3063.27 2160 2886.55 2220.44 2886.55 2160" stroke="rgba(51, 121, 194, 0.58)" stroke-width="2"></path><path d="M4050 2160C4050 1989.92 4248.21 1658.57 4320 1658.57C4383.21 1658.57 4407.75 1997.04 4320 2160C4272.75 2247.75 4050 2240.63 4050 2160" stroke="rgba(51, 121, 194, 0.58)" stroke-width="2"></path><path d="M0 310.21C94.69 134.85 121.09 97.95 291.6 0C391.09 -57.15 415.8 0 540 0C661.76 0 737.9 -83.66 783.53 0C885.17 186.34 734.97 325.04 834.55 540C883.21 645.04 965.85 640 1080 640C1144.83 640 1124 567.31 1192.5 540C1394 459.67 1421.12 424.72 1620 424.72C1694.52 424.72 1739.3 466.84 1739.3 540C1739.3 721.79 1704.7 751.4 1620 934.62C1579.88 1021.4 1554.83 1007.31 1489.66 1080C1284.83 1308.46 1281.06 1536.92 1080 1536.92C884.61 1536.92 865.15 1323.5 696.77 1080C595.15 933.04 679.18 827.3 540 756C330.8 648.83 201.74 803.75 0 723.05C-68.26 695.75 0 631.53 0 540C0 425.11 -51.11 404.85 0 310.21" stroke="rgba(51, 121, 194, 0.58)" stroke-width="2"></path><path d="M2700 409.66C2560.2 379.35 2569.45 157.12 2569.45 0C2569.45 -47.71 2634.73 0 2700 0C2970 0 2970 0 3240 0C3286.1 0 3332.2 -25.35 3332.2 0C3332.2 47.34 3310.37 99.78 3240 145.38C2994.27 304.61 2895.48 452.04 2700 409.66" stroke="rgba(51, 121, 194, 0.58)" stroke-width="2"></path><path d="M4020 540C4020 469.96 4211.79 414.42 4320 414.42C4361.79 414.42 4320 477.21 4320 540C4320 620.6 4368.19 701.19 4320 701.19C4218.19 701.19 4020 613.34 4020 540" stroke="rgba(51, 121, 194, 0.58)" stroke-width="2"></path><path d="M1777.5 1080C1777.5 1015.57 1980.08 1052.25 2160 970.71C2441.33 843.22 2493.66 630.3 2700 661.94C2850.06 684.95 2872.8 891.28 2872.8 1080C2872.8 1175.66 2806.22 1207.9 2700 1230.7C2449.82 1284.4 2421.64 1275.74 2160 1233C1960.39 1200.39 1777.5 1146.72 1777.5 1080" stroke="rgba(51, 121, 194, 0.58)" stroke-width="2"></path><path d="M171.82 2160C171.82 2075.5 342.63 1860 540 1860C796.72 1860 1080 2079.96 1080 2160C1080 2229.96 810 2160 540 2160C355.91 2160 171.82 2225.5 171.82 2160" stroke="rgba(51, 121, 194, 0.58)" stroke-width="2"></path><path d="M3132 2160C3132 2136.64 3184.85 2076.34 3240 2076.34C3299.46 2076.34 3361.22 2137.05 3361.22 2160C3361.22 2178.88 3300.61 2160 3240 2160C3186 2160 3132 2178.47 3132 2160" stroke="rgba(51, 121, 194, 0.58)" stroke-width="2"></path></g><defs><mask id="SvgjsMask1010"><rect width="3840" height="2160" fill="#ffffff"></rect></mask></defs></svg>