<svg xmlns="http://www.w3.org/2000/svg" version="1.1" xmlns:xlink="http://www.w3.org/1999/xlink" xmlns:svgjs="http://svgjs.dev/svgjs" width="3840" height="2160" preserveAspectRatio="none" viewBox="0 0 3840 2160"><g mask="url(&quot;#SvgjsMask1109&quot;)" fill="none"><rect width="3840" height="2160" x="0" y="0" fill="rgba(20, 34, 49, 1)"></rect><path d="M0,1640.796C312.63,1645.703,646.196,1575.142,876.087,1363.217C1095.668,1160.796,1121.172,834.116,1190.246,543.567C1247.228,303.88,1251.07,67.558,1242.645,-178.665C1233.173,-455.48,1328.126,-784.674,1137.906,-986.001C946.814,-1188.251,609.03,-1093.504,334.642,-1139.687C97.99,-1179.519,-124.454,-1257.136,-363.729,-1238.747C-650.399,-1216.716,-954.248,-1200.173,-1180.858,-1023.219C-1425.987,-831.804,-1652.092,-547.75,-1646.864,-236.783C-1641.666,72.398,-1293.343,250.927,-1154.788,527.374C-1023.509,789.304,-1069.506,1132.632,-858.59,1335.993C-635.445,1551.145,-309.936,1635.932,0,1640.796" fill="#111d2a"></path><path d="M3840 3904.2560000000003C4165.416 3898.374 4310.246 3483.13 4546.366 3259.127 4732.607 3082.443 4918.432 2925.377 5081.14 2726.809 5299.317 2460.546 5674.477 2242.086 5661.604 1898.093 5648.9439999999995 1559.78 5276.713 1358.703 5021.613 1136.127 4797.653 940.721 4555.948 776.4200000000001 4272.722 686.2840000000001 3984.524 594.565 3668.322 505.82500000000005 3386.576 615.779 3110.727 723.432 2981.277 1024.868 2801.745 1260.347 2634.173 1480.1390000000001 2444.663 1682.489 2370.3450000000003 1948.695 2289.267 2239.112 2215.084 2571.689 2362.165 2834.9049999999997 2508.018 3095.924 2874.791 3109.68 3117.0299999999997 3284.9629999999997 3379.419 3474.826 3516.177 3910.109 3840 3904.2560000000003" fill="#172738"></path></g><defs><mask id="SvgjsMask1109"><rect width="3840" height="2160" fill="#ffffff"></rect></mask></defs></svg>